<svg xmlns="http://www.w3.org/2000/svg" xmlns:xlink="http://www.w3.org/1999/xlink" preserveAspectRatio="xMidYMid meet" width="1000" height="1000" viewBox="0 0 1000 1000" style="width:100%;height:100%"><defs><clipPath id="_R_G_L_2_C_0"><path id="_R_G_L_2_C_0_P_0" fill-rule="nonzero" d="M500 0 C223.86,0 0,223.86 0,500 C0,776.14 223.86,1000 500,1000 C776.14,1000 1000,776.14 1000,500 C1000,223.86 776.14,0 500,0z "/></clipPath><animate repeatCount="indefinite" dur="1.5s" begin="0s" xlink:href="#_R_G_L_2_G" fill="freeze" attributeName="opacity" from="0" to="0" keyTimes="0;0.3055556;0.7222222;0.9444444;1" values="0;0;0.3;0;0" keySplines="0.333 0 0 1;0.333 0 0 1;1 0 0.836 1;0 0 0 0" calcMode="spline"/><animateTransform repeatCount="indefinite" dur="1.5s" begin="0s" xlink:href="#_R_G_L_2_G" fill="freeze" attributeName="transform" from="0.3 0.3" to="0.78 0.78" type="scale" additive="sum" keyTimes="0;0.3055556;0.75;1" values="0.3 0.3;0.3 0.3;0.78 0.78;0.78 0.78" keySplines="0.577 0 0 1;0.577 0 0 1;0 0 0 0" calcMode="spline"/><animateTransform repeatCount="indefinite" dur="1.5s" begin="0s" xlink:href="#_R_G_L_2_G" fill="freeze" attributeName="transform" from="-500 -500" to="-500 -500" type="translate" additive="sum" keyTimes="0;1" values="-500 -500;-500 -500" keySplines="0 0 1 1" calcMode="spline"/><clipPath id="_R_G_L_1_C_0"><path id="_R_G_L_1_C_0_P_0" fill-rule="nonzero" d="M500 0 C223.86,0 0,223.86 0,500 C0,776.14 223.86,1000 500,1000 C776.14,1000 1000,776.14 1000,500 C1000,223.86 776.14,0 500,0z "/></clipPath><animate repeatCount="indefinite" dur="1.5s" begin="0s" xlink:href="#_R_G_L_1_G" fill="freeze" attributeName="opacity" from="0" to="0" keyTimes="0;0.1666667;0.4166667;0.7222222;1" values="0;0;0.5;0.5;0" keySplines="0.333 0 0.254 1;0.333 0 0.254 1;0.333 0 0.667 1;1 0.01 0.686 1" calcMode="spline"/><animateTransform repeatCount="indefinite" dur="1.5s" begin="0s" xlink:href="#_R_G_L_1_G" fill="freeze" attributeName="transform" from="0.299 0.299" to="0.549 0.549" type="scale" additive="sum" keyTimes="0;0.1388889;0.7222222;1" values="0.299 0.299;0.299 0.299;0.549 0.549;0.549 0.549" keySplines="0.333 0 0.005 1;0.333 0 0.005 1;0 0 0 0" calcMode="spline"/><animateTransform repeatCount="indefinite" dur="1.5s" begin="0s" xlink:href="#_R_G_L_1_G" fill="freeze" attributeName="transform" from="-500 -500" to="-500 -500" type="translate" additive="sum" keyTimes="0;1" values="-500 -500;-500 -500" keySplines="0 0 1 1" calcMode="spline"/><clipPath id="_R_G_L_0_C_0"><path id="_R_G_L_0_C_0_P_0" fill-rule="nonzero" d="M150 0 C67.16,0 0,67.16 0,150 C0,232.84 67.16,300 150,300 C232.84,300 300,232.84 300,150 C300,67.16 232.84,0 150,0z "/></clipPath><animate repeatCount="indefinite" dur="1.5s" begin="0s" xlink:href="#_R_G_L_0_G" fill="freeze" attributeName="opacity" from="0.8" to="0.8" keyTimes="0;0.2777778;0.7777778;1" values="0.8;1;1;0.8" keySplines="1 0 0.667 1;0.333 0 0.309 1;0.773 0 0.672 1" calcMode="spline"/><animate attributeType="XML" attributeName="opacity" dur="2s" from="0" to="1" xlink:href="#time_group"/></defs><g id="_R_G"><g id="_R_G_L_2_G" transform=" translate(500, 500)"><g clip-path="url(#_R_G_L_2_C_0)"><rect id="_R_G_L_2_G_G_0_S" fill="#43a047" width="1000" height="1000"/></g></g><g id="_R_G_L_1_G" transform=" translate(500, 500)"><g clip-path="url(#_R_G_L_1_C_0)"><rect id="_R_G_L_1_G_G_0_S" fill="#43a047" width="1000" height="1000"/></g></g><g id="_R_G_L_0_G" transform=" translate(500, 500) scale(1.04333, 1.04333) translate(-150, -150)"><g clip-path="url(#_R_G_L_0_C_0)"><rect id="_R_G_L_0_G_G_0_S" fill="#43a047" width="300" height="300"/></g></g></g><g id="time_group"/></svg>